<?xml version="1.0" encoding="UTF-8"?><svg id="a" xmlns="http://www.w3.org/2000/svg" viewBox="0 0 108 119.4"><path d="M98.99.15c-.26,15-.52,30.01-.99,45-1.84,4.52-6.13,7.95-8.2,12.35,2.13-.25,6.43-4.18,7.9-2.5,3.37,6.12,6.75,12.23,10.15,18.33.31.55.14.84-.28,1.18-4.05,3.35-8.1,6.71-12.13,10.09-7.52,6.09-14.77,12.85-22.35,18.7,1.01-2.22,2.02-4.43,3.03-6.65l-.14-.11c-6.52,7.46-13.38,19.88-22.68,22.85-8.75-5.91-14.33-14.55-20.84-22.6-.06.04-.12.07-.18.11.94,2.13,1.88,4.26,2.82,6.39-.04.04-.08.09-.12.13-11.46-9.49-22.73-19.22-34.25-28.64-.88-.73-.91-.78-.38-1.75,3.33-6.05,6.68-12.09,10-18.15,2.06-1.43,4.96,2.39,7.44,2.33-2.28-4.23-6.29-7.74-7.82-12.27-.36-14.99-.67-29.95-.99-44.95,11.59,14.21,23.04,28.52,34.45,42.88.56.73,1.15.96,2.08.86,5.06-.54,10.13-.57,15.2-.16,1.71.18,3.22.5,4.26-1.22C76.21,28.25,87.48,14.16,98.82.11c.06.01.11.02.17.04ZM20.82,65.7c9.8,20.44,10.34,11.44,23.1,24.52-2.65-13.64-12.18-17.92-23.1-24.52ZM63.81,90.43c13.22-13.04,13-4.59,23.06-24.52-11.7,6.64-19.47,10.7-23.06,24.52Z" fill="#e30613" stroke-width="0"/><path d="M20.82,65.7c10.93,6.6,20.46,10.89,23.1,24.52-12.8-13.12-13.25-4.02-23.1-24.52Z" fill="#e30613" stroke-width="0"/><path d="M63.81,90.43c3.59-13.81,11.38-17.89,23.06-24.52-10.02,19.87-9.88,11.52-23.06,24.52Z" fill="#e30613" stroke-width="0"/><path d="M98.99.15c-.26,15-.52,30.01-.99,45-1.84,4.52-6.13,7.95-8.2,12.35,2.13-.25,6.43-4.18,7.9-2.5,3.37,6.12,6.75,12.23,10.15,18.33.31.55.14.84-.28,1.18-4.05,3.35-8.1,6.71-12.13,10.09-7.52,6.09-14.77,12.85-22.35,18.7,1.01-2.22,2.02-4.43,3.03-6.65l-.14-.11c-6.52,7.46-13.38,19.88-22.68,22.85-8.75-5.91-14.33-14.55-20.84-22.6-.06.04-.12.07-.18.11.94,2.13,1.88,4.26,2.82,6.39-.04.04-.08.09-.12.13-11.46-9.49-22.73-19.22-34.25-28.64-.88-.73-.91-.78-.38-1.75,3.33-6.05,6.68-12.09,10-18.15,2.06-1.43,4.96,2.39,7.44,2.33-2.28-4.23-6.29-7.74-7.82-12.27-.36-14.99-.67-29.95-.99-44.95,11.59,14.21,23.04,28.52,34.45,42.88.56.73,1.15.96,2.08.86,5.06-.54,10.13-.57,15.2-.16,1.71.18,3.22.5,4.26-1.22C76.21,28.25,87.48,14.16,98.82.11c.06.01.11.02.17.04ZM20.82,65.7c9.8,20.44,10.34,11.44,23.1,24.52-2.65-13.64-12.18-17.92-23.1-24.52ZM63.81,90.43c13.22-13.04,13-4.59,23.06-24.52-11.7,6.64-19.47,10.7-23.06,24.52Z" fill="#e63127" stroke-width="0"/><path d="M20.82,65.7c10.93,6.6,20.46,10.89,23.1,24.52-12.8-13.12-13.25-4.02-23.1-24.52Z" fill="#fff" stroke-width="0"/><path d="M63.81,90.43c3.59-13.81,11.38-17.89,23.06-24.52-10.02,19.87-9.88,11.52-23.06,24.52Z" fill="#fff" stroke-width="0"/></svg>